<?xml version="1.0" encoding="utf-8"?>
<!-- Generator: Adobe Illustrator 20.0.0, SVG Export Plug-In . SVG Version: 6.00 Build 0)  -->
<svg version="1.1" id="Layer_1" xmlns="http://www.w3.org/2000/svg" xmlns:xlink="http://www.w3.org/1999/xlink" x="0px" y="0px"
	 viewBox="0 0 348 348" style="enable-background:new 0 0 348 348;" xml:space="preserve">
<style type="text/css">
	.st0{clip-path:url(#SVGID_2_);fill:none;stroke:#000000;stroke-width:2;stroke-linejoin:round;stroke-miterlimit:10;}
	.st1{clip-path:url(#SVGID_2_);}
	.st2{clip-path:url(#SVGID_2_);fill:#FFFFFF;}
	.st3{clip-path:url(#SVGID_2_);fill-opacity:0;}
	.st4{fill:none;stroke:#000000;stroke-linejoin:round;stroke-miterlimit:10;}
</style>
<g>
	<defs>
		<rect id="SVGID_1_" width="348" height="348"/>
	</defs>
	<clipPath id="SVGID_2_">
		<use xlink:href="#SVGID_1_"  style="overflow:visible;"/>
	</clipPath>
	<path class="st0" d="M5.1,5.8H342v337.7H5.1L5.1,5.8z"/>
	<path class="st1" d="M133.8,15.7h74.3v56.9h-74.3V15.7z"/>
	<path class="st2" d="M154.5,44.1c0-2.7,0.3-4.9,0.8-6.5c0.6-1.7,1.4-2.9,2.5-3.8c1.1-0.9,2.5-1.3,4.2-1.3c1.2,0,2.3,0.3,3.2,0.8
		c0.9,0.5,1.7,1.2,2.3,2.1c0.6,0.9,1.1,2.1,1.4,3.4c0.3,1.3,0.5,3.1,0.5,5.4c0,2.7-0.3,4.9-0.8,6.5c-0.6,1.6-1.4,2.9-2.5,3.8
		c-1.1,0.9-2.5,1.3-4.2,1.3c-2.2,0-3.9-0.8-5.2-2.4C155.3,51.5,154.5,48.4,154.5,44.1z M157.4,44.1c0,3.8,0.4,6.3,1.3,7.5
		c0.9,1.2,2,1.9,3.3,1.9s2.4-0.6,3.3-1.9c0.9-1.3,1.3-3.8,1.3-7.5c0-3.8-0.4-6.3-1.3-7.5c-0.9-1.2-2-1.9-3.3-1.9
		c-1.3,0-2.3,0.5-3.1,1.6C157.9,37.8,157.4,40.3,157.4,44.1z M172.3,44.1c0-2.7,0.3-4.9,0.8-6.5c0.6-1.7,1.4-2.9,2.5-3.8
		c1.1-0.9,2.5-1.3,4.2-1.3c1.2,0,2.3,0.3,3.2,0.8c0.9,0.5,1.7,1.2,2.3,2.1c0.6,0.9,1.1,2.1,1.4,3.4c0.3,1.3,0.5,3.1,0.5,5.4
		c0,2.7-0.3,4.9-0.8,6.5c-0.6,1.6-1.4,2.9-2.5,3.8c-1.1,0.9-2.5,1.3-4.2,1.3c-2.2,0-3.9-0.8-5.2-2.4
		C173.1,51.5,172.3,48.4,172.3,44.1z M175.2,44.1c0,3.8,0.4,6.3,1.3,7.5c0.9,1.2,2,1.9,3.3,1.9s2.4-0.6,3.3-1.9
		c0.9-1.3,1.3-3.8,1.3-7.5c0-3.8-0.4-6.3-1.3-7.5c-0.9-1.2-2-1.9-3.3-1.9c-1.3,0-2.3,0.5-3.1,1.6C175.7,37.8,175.2,40.3,175.2,44.1z
		"/>
	<path class="st2" d="M15.3,17.7h109.9v54.8H15.3L15.3,17.7z"/>
	<path class="st0" d="M15.3,17.7h109.9v54.8H15.3L15.3,17.7z"/>
	<path class="st3" d="M15.3,72.7l39.7-54.1"/>
	<path class="st0" d="M15.3,72.7l39.7-54.1"/>
	<path class="st3" d="M37.6,72.7l39.7-54.1"/>
	<path class="st0" d="M37.6,72.7l39.7-54.1"/>
	<path class="st3" d="M59.9,72.7l39.7-54.1"/>
	<path class="st0" d="M59.9,72.7l39.7-54.1"/>
	<path class="st3" d="M82.2,72.7l39.7-54.1"/>
	<path class="st0" d="M82.2,72.7l39.7-54.1"/>
	<path class="st2" d="M216.9,16.6h109.9v54.8H216.9V16.6z"/>
	<path class="st0" d="M216.9,16.6h109.9v54.8H216.9V16.6z"/>
	<path class="st3" d="M216.9,71.6l39.7-54.1"/>
	<path class="st0" d="M216.9,71.6l39.7-54.1"/>
	<path class="st3" d="M239.2,71.6l39.7-54.1"/>
	<path class="st0" d="M239.2,71.6l39.7-54.1"/>
	<path class="st3" d="M261.5,71.6l39.7-54.1"/>
	<path class="st0" d="M261.5,71.6l39.7-54.1"/>
	<path class="st3" d="M283.8,71.6l39.7-54.1"/>
	<path class="st0" d="M283.8,71.6l39.7-54.1"/>
	<path class="st1" d="M44.5,88.1h259v163.9h-259V88.1z"/>
	<path class="st2" d="M115.6,143.5v-36.6h7.8v2.9h-4.2v30.8h4.2v2.9H115.6z M145.5,135.5v-25.3H136v-3.4h22.7v3.4h-9.5v25.3H145.5z
		 M176.4,128.8l3.6,0.5c-0.6,2.1-1.6,3.8-3.2,5c-1.5,1.2-3.5,1.8-5.9,1.8c-3,0-5.4-0.9-7.2-2.8c-1.8-1.9-2.7-4.5-2.7-7.9
		c0-3.5,0.9-6.2,2.7-8.1c1.8-1.9,4.1-2.9,7-2.9c2.8,0,5,0.9,6.8,2.8c1.8,1.9,2.6,4.5,2.6,8c0,0.2,0,0.5,0,0.9h-15.5
		c0.1,2.3,0.8,4,1.9,5.2c1.2,1.2,2.6,1.8,4.3,1.8c1.3,0,2.4-0.3,3.3-1C175.1,131.4,175.8,130.3,176.4,128.8z M164.8,123.2h11.6
		c-0.2-1.8-0.6-3.1-1.3-3.9c-1.1-1.4-2.6-2-4.4-2c-1.6,0-3,0.5-4.1,1.6C165.5,119.9,164.9,121.3,164.8,123.2z M182.1,135.5l7.6-10.8
		l-7-10h4.4l3.2,4.9c0.6,0.9,1.1,1.7,1.5,2.3c0.6-0.9,1.1-1.6,1.6-2.3l3.5-4.9h4.2l-7.2,9.8l7.7,11h-4.3l-4.3-6.5l-1.1-1.7l-5.5,8.2
		H182.1z M212.1,132.4l0.5,3.1c-1,0.2-1.9,0.3-2.7,0.3c-1.3,0-2.3-0.2-3-0.6c-0.7-0.4-1.2-0.9-1.5-1.6c-0.3-0.7-0.4-2-0.4-4.2v-11.9
		h-2.6v-2.7h2.6v-5.1l3.5-2.1v7.2h3.5v2.7h-3.5v12.1c0,1,0.1,1.6,0.2,1.9c0.1,0.3,0.3,0.5,0.6,0.7c0.3,0.2,0.7,0.3,1.2,0.3
		C210.9,132.5,211.4,132.5,212.1,132.4z M232.5,143.5h-7.8v-2.9h4.2v-30.8h-4.2v-2.9h7.8V143.5z"/>
	<g class="st1">
		<path class="st4" d="M149,272.8h50v50h-50V272.8z"/>
		<path d="M159,282.8h30v30h-30V282.8z"/>
	</g>
	<g class="st1">
		<path class="st4" d="M234.2,272.8h50v50h-50V272.8z"/>
		<path d="M244.2,282.8h30v30h-30V282.8z"/>
	</g>
	<g class="st1">
		<path class="st4" d="M63.8,272.8h50v50h-50V272.8z"/>
		<path d="M73.8,282.8h30v30h-30V282.8z"/>
	</g>
</g>
</svg>
